<svg width="1090" height="381" viewBox="0 0 1090 381" fill="none" xmlns="http://www.w3.org/2000/svg">
<path d="M370 190.5C370 295.71 227.738 381 146.712 381C65.6851 381 0 295.71 0 190.5C0 85.2898 65.6851 0 146.712 0C227.738 0 370 85.2898 370 190.5Z" fill="#1D33F8"/>
<path d="M262.957 157.124C262.349 150.994 259.74 146.232 255.129 142.837C250.519 139.443 244.262 137.746 236.359 137.746C230.988 137.746 226.454 138.506 222.756 140.026C219.057 141.495 216.22 143.547 214.244 146.181C212.319 148.816 211.357 151.805 211.357 155.148C211.255 157.935 211.838 160.367 213.104 162.444C214.422 164.521 216.22 166.32 218.5 167.839C220.78 169.309 223.414 170.601 226.403 171.715C229.393 172.779 232.584 173.691 235.979 174.451L249.962 177.795C256.75 179.315 262.982 181.341 268.656 183.874C274.33 186.407 279.245 189.523 283.399 193.222C287.554 196.92 290.771 201.277 293.05 206.293C295.381 211.308 296.572 217.058 296.622 223.543C296.572 233.068 294.14 241.326 289.327 248.317C284.564 255.258 277.674 260.654 268.656 264.504C259.689 268.304 248.872 270.204 236.207 270.204C223.642 270.204 212.699 268.279 203.377 264.428C194.106 260.578 186.861 254.878 181.643 247.33C176.475 239.73 173.765 230.332 173.511 219.136H205.353C205.708 224.354 207.202 228.711 209.837 232.207C212.522 235.652 216.094 238.261 220.552 240.034C225.061 241.757 230.152 242.618 235.827 242.618C241.4 242.618 246.238 241.807 250.342 240.186C254.496 238.565 257.713 236.31 259.993 233.423C262.273 230.535 263.413 227.216 263.413 223.467C263.413 219.972 262.374 217.033 260.297 214.652C258.27 212.271 255.281 210.244 251.33 208.572C247.429 206.901 242.641 205.381 236.967 204.013L220.02 199.757C206.898 196.565 196.538 191.575 188.938 184.786C181.339 177.997 177.564 168.853 177.615 157.352C177.564 147.929 180.072 139.696 185.138 132.654C190.255 125.612 197.272 120.115 206.189 116.163C215.106 112.212 225.238 110.236 236.587 110.236C248.138 110.236 258.22 112.212 266.832 116.163C275.496 120.115 282.234 125.612 287.047 132.654C291.86 139.696 294.342 147.853 294.494 157.124H262.957Z" fill="white"/>
<path d="M450.492 270.204C443.044 270.204 436.407 268.912 430.581 266.328C424.755 263.694 420.145 259.818 416.75 254.701C413.406 249.533 411.735 243.099 411.735 235.398C411.735 228.914 412.925 223.467 415.306 219.06C417.687 214.652 420.93 211.106 425.034 208.42C429.137 205.735 433.798 203.709 439.017 202.341C444.285 200.973 449.808 200.01 455.583 199.453C462.372 198.744 467.844 198.085 471.998 197.477C476.152 196.819 479.167 195.856 481.041 194.589C482.916 193.323 483.853 191.448 483.853 188.966V188.51C483.853 183.697 482.333 179.973 479.294 177.339C476.304 174.704 472.049 173.387 466.526 173.387C460.7 173.387 456.065 174.679 452.619 177.263C449.174 179.796 446.895 182.988 445.78 186.838L415.838 184.406C417.358 177.313 420.347 171.183 424.806 166.016C429.264 160.797 435.014 156.795 442.056 154.009C449.149 151.171 457.356 149.753 466.678 149.753C473.163 149.753 479.369 150.513 485.297 152.033C491.275 153.553 496.57 155.908 501.18 159.1C505.841 162.292 509.514 166.396 512.199 171.411C514.884 176.376 516.227 182.329 516.227 189.27V268H485.525V251.813H484.613C482.739 255.461 480.231 258.678 477.09 261.464C473.949 264.2 470.174 266.353 465.767 267.924C461.359 269.444 456.267 270.204 450.492 270.204ZM459.763 247.862C464.525 247.862 468.73 246.924 472.378 245.05C476.026 243.125 478.888 240.541 480.965 237.298C483.043 234.056 484.081 230.383 484.081 226.279V213.892C483.068 214.551 481.675 215.159 479.901 215.716C478.179 216.223 476.228 216.704 474.05 217.16C471.871 217.565 469.693 217.945 467.514 218.3C465.336 218.604 463.36 218.882 461.587 219.136C457.787 219.693 454.469 220.58 451.632 221.795C448.794 223.011 446.591 224.658 445.02 226.735C443.45 228.762 442.664 231.295 442.664 234.335C442.664 238.742 444.26 242.111 447.452 244.442C450.694 246.722 454.798 247.862 459.763 247.862ZM541.343 268V151.273H572.729V171.639H573.944C576.072 164.394 579.644 158.923 584.66 155.224C589.675 151.475 595.451 149.601 601.986 149.601C603.608 149.601 605.355 149.702 607.23 149.905C609.104 150.107 610.751 150.386 612.17 150.741V179.467C610.65 179.011 608.547 178.605 605.862 178.251C603.177 177.896 600.72 177.719 598.491 177.719C593.728 177.719 589.473 178.757 585.724 180.835C582.025 182.861 579.087 185.698 576.908 189.346C574.78 192.994 573.716 197.199 573.716 201.961V268H541.343ZM696.846 151.273V175.591H626.551V151.273H696.846ZM642.51 123.307H674.884V232.131C674.884 235.12 675.34 237.45 676.252 239.122C677.164 240.743 678.43 241.883 680.051 242.542C681.723 243.201 683.649 243.53 685.827 243.53C687.347 243.53 688.867 243.403 690.387 243.15C691.907 242.846 693.072 242.618 693.882 242.466L698.974 266.556C697.353 267.063 695.073 267.645 692.135 268.304C689.196 269.013 685.624 269.444 681.419 269.596C673.617 269.9 666.778 268.861 660.901 266.48C655.075 264.099 650.54 260.401 647.298 255.385C644.056 250.369 642.46 244.036 642.51 236.386V123.307ZM752.816 200.517V268H720.442V112.364H751.904V171.867H753.272C755.906 164.977 760.162 159.581 766.039 155.68C771.916 151.729 779.287 149.753 788.153 149.753C796.259 149.753 803.327 151.526 809.356 155.072C815.435 158.568 820.147 163.609 823.491 170.195C826.885 176.731 828.557 184.558 828.506 193.678V268H796.133V199.453C796.183 192.259 794.36 186.661 790.661 182.658C787.013 178.656 781.897 176.655 775.31 176.655C770.903 176.655 767.002 177.592 763.607 179.467C760.263 181.341 757.629 184.077 755.704 187.674C753.829 191.22 752.867 195.501 752.816 200.517ZM887.269 270.204C879.822 270.204 873.185 268.912 867.358 266.328C861.532 263.694 856.922 259.818 853.528 254.701C850.184 249.533 848.512 243.099 848.512 235.398C848.512 228.914 849.702 223.467 852.084 219.06C854.465 214.652 857.707 211.106 861.811 208.42C865.915 205.735 870.576 203.709 875.794 202.341C881.063 200.973 886.585 200.01 892.361 199.453C899.149 198.744 904.621 198.085 908.775 197.477C912.93 196.819 915.944 195.856 917.819 194.589C919.693 193.323 920.631 191.448 920.631 188.966V188.51C920.631 183.697 919.111 179.973 916.071 177.339C913.082 174.704 908.826 173.387 903.304 173.387C897.478 173.387 892.842 174.679 889.397 177.263C885.952 179.796 883.672 182.988 882.557 186.838L852.616 184.406C854.135 177.313 857.125 171.183 861.583 166.016C866.041 160.797 871.791 156.795 878.834 154.009C885.926 151.171 894.134 149.753 903.456 149.753C909.941 149.753 916.147 150.513 922.074 152.033C928.053 153.553 933.347 155.908 937.957 159.1C942.618 162.292 946.291 166.396 948.976 171.411C951.662 176.376 953.004 182.329 953.004 189.27V268H922.302V251.813H921.39C919.516 255.461 917.008 258.678 913.867 261.464C910.726 264.2 906.952 266.353 902.544 267.924C898.136 269.444 893.045 270.204 887.269 270.204ZM896.54 247.862C901.303 247.862 905.508 246.924 909.155 245.05C912.803 243.125 915.666 240.541 917.743 237.298C919.82 234.056 920.858 230.383 920.858 226.279V213.892C919.845 214.551 918.452 215.159 916.679 215.716C914.956 216.223 913.006 216.704 910.827 217.16C908.649 217.565 906.47 217.945 904.292 218.3C902.113 218.604 900.137 218.882 898.364 219.136C894.564 219.693 891.246 220.58 888.409 221.795C885.572 223.011 883.368 224.658 881.797 226.735C880.227 228.762 879.442 231.295 879.442 234.335C879.442 238.742 881.037 242.111 884.229 244.442C887.472 246.722 891.575 247.862 896.54 247.862ZM1007.45 234.411L1007.53 195.577H1012.24L1049.63 151.273H1086.79L1036.56 209.94H1028.88L1007.45 234.411ZM978.12 268V112.364H1010.49V268H978.12ZM1051.07 268L1016.73 217.16L1038.31 194.286L1089 268H1051.07Z" fill="black"/>
</svg>
