<svg width="370" height="381" viewBox="0 0 370 381" fill="none" xmlns="http://www.w3.org/2000/svg">
<path d="M370 190.5C370 295.71 227.738 381 146.712 381C65.6851 381 0 295.71 0 190.5C0 85.2898 65.6851 0 146.712 0C227.738 0 370 85.2898 370 190.5Z" fill="#1D33F8"/>
<path d="M292.957 155.124C292.349 148.994 289.74 144.232 285.129 140.837C280.519 137.443 274.262 135.746 266.359 135.746C260.988 135.746 256.454 136.506 252.756 138.026C249.057 139.495 246.22 141.547 244.244 144.181C242.319 146.816 241.357 149.805 241.357 153.148C241.255 155.935 241.838 158.367 243.104 160.444C244.422 162.521 246.22 164.32 248.5 165.839C250.78 167.309 253.414 168.601 256.403 169.715C259.393 170.779 262.584 171.691 265.979 172.451L279.962 175.795C286.75 177.315 292.982 179.341 298.656 181.874C304.33 184.407 309.245 187.523 313.399 191.222C317.554 194.92 320.771 199.277 323.05 204.293C325.381 209.308 326.572 215.058 326.622 221.543C326.572 231.068 324.14 239.326 319.327 246.317C314.564 253.258 307.674 258.654 298.656 262.504C289.689 266.304 278.872 268.204 266.207 268.204C253.642 268.204 242.699 266.279 233.377 262.428C224.106 258.578 216.861 252.878 211.643 245.33C206.475 237.73 203.765 228.332 203.511 217.136H235.353C235.708 222.354 237.202 226.711 239.837 230.207C242.522 233.652 246.094 236.261 250.552 238.034C255.061 239.757 260.152 240.618 265.827 240.618C271.4 240.618 276.238 239.807 280.342 238.186C284.496 236.565 287.713 234.31 289.993 231.423C292.273 228.535 293.413 225.216 293.413 221.467C293.413 217.972 292.374 215.033 290.297 212.652C288.27 210.271 285.281 208.244 281.33 206.572C277.429 204.901 272.641 203.381 266.967 202.013L250.02 197.757C236.898 194.565 226.538 189.575 218.938 182.786C211.339 175.997 207.564 166.853 207.615 155.352C207.564 145.929 210.072 137.696 215.138 130.654C220.255 123.612 227.272 118.115 236.189 114.163C245.106 110.212 255.238 108.236 266.587 108.236C278.138 108.236 288.22 110.212 296.832 114.163C305.496 118.115 312.234 123.612 317.047 130.654C321.86 137.696 324.342 145.853 324.494 155.124H292.957Z" fill="white"/>
</svg>
